<svg xmlns="http://www.w3.org/2000/svg" width="26" height="25" fill="none" viewBox="0 0 26 25"><path stroke="#fff" stroke-linecap="round" stroke-linejoin="round" stroke-width="2" d="M18.5162 6.771H18.5266M7.57869 2.0835H17.9954C20.8718 2.0835 23.2037 4.41535 23.2037 7.29183V17.7085C23.2037 20.585 20.8718 22.9168 17.9954 22.9168H7.57869C4.70221 22.9168 2.37036 20.585 2.37036 17.7085V7.29183C2.37036 4.41535 4.70221 2.0835 7.57869 2.0835ZM16.9537 11.8439C17.0822 12.7108 16.9342 13.5962 16.5305 14.3741C16.1269 15.1521 15.4882 15.7829 14.7054 16.1769C13.9226 16.5709 13.0354 16.7081 12.1701 16.5688C11.3049 16.4296 10.5055 16.0211 9.88582 15.4014C9.26611 14.7817 8.85758 13.9823 8.71835 13.1171C8.57911 12.2518 8.71626 11.3646 9.11028 10.5818C9.5043 9.79897 10.1351 9.16031 10.9131 8.75666C11.691 8.35302 12.5764 8.20494 13.4433 8.3335C14.3276 8.46463 15.1462 8.87669 15.7784 9.50881C16.4105 10.1409 16.8226 10.9596 16.9537 11.8439Z"/></svg>