<svg xmlns="http://www.w3.org/2000/svg" width="26" height="25" viewBox="0 0 26 25" fill="none">
  <path d="M17.0975 8.3335C18.7551 8.3335 20.3448 8.99198 21.5169 10.1641C22.689 11.3362 23.3475 12.9259 23.3475 14.5835V21.8752H19.1808V14.5835C19.1808 14.031 18.9613 13.5011 18.5706 13.1104C18.1799 12.7197 17.65 12.5002 17.0975 12.5002C16.545 12.5002 16.0151 12.7197 15.6244 13.1104C15.2337 13.5011 15.0142 14.031 15.0142 14.5835V21.8752H10.8475V14.5835C10.8475 12.9259 11.506 11.3362 12.6781 10.1641C13.8502 8.99198 15.4399 8.3335 17.0975 8.3335Z" stroke="white" stroke-width="2" stroke-linecap="round" stroke-linejoin="round"/>
  <path d="M6.68083 9.37516H2.51416V21.8752H6.68083V9.37516Z" stroke="white" stroke-width="2" stroke-linecap="round" stroke-linejoin="round"/>
  <path d="M4.59749 6.25016C5.74809 6.25016 6.68083 5.31742 6.68083 4.16683C6.68083 3.01624 5.74809 2.0835 4.59749 2.0835C3.4469 2.0835 2.51416 3.01624 2.51416 4.16683C2.51416 5.31742 3.4469 6.25016 4.59749 6.25016Z" stroke="white" stroke-width="2" stroke-linecap="round" stroke-linejoin="round"/>
</svg>