<svg xmlns="http://www.w3.org/2000/svg" width="25" height="25" fill="none" viewBox="0 0 25 25"><path stroke="#fff" stroke-linecap="round" stroke-linejoin="round" stroke-width="2" d="M2.60411 17.7083C1.87643 14.2742 1.87643 10.7258 2.60411 7.29167C2.69973 6.94293 2.88447 6.62508 3.14016 6.36938C3.39586 6.11368 3.71371 5.92895 4.06245 5.83333C9.64937 4.90777 15.3505 4.90777 20.9375 5.83333C21.2862 5.92895 21.604 6.11368 21.8597 6.36938C22.1154 6.62508 22.3002 6.94293 22.3958 7.29167C23.1235 10.7258 23.1235 14.2742 22.3958 17.7083C22.3002 18.0571 22.1154 18.3749 21.8597 18.6306C21.604 18.8863 21.2862 19.0711 20.9375 19.1667C15.3505 20.0924 9.64936 20.0924 4.06245 19.1667C3.71371 19.0711 3.39586 18.8863 3.14016 18.6306C2.88447 18.3749 2.69973 18.0571 2.60411 17.7083Z"/><path stroke="#fff" stroke-linecap="round" stroke-linejoin="round" stroke-width="2" d="M10.4166 15.625L15.6249 12.5L10.4166 9.375V15.625Z"/></svg>