<svg width="61" height="64" viewBox="0 0 61 64" fill="none" xmlns="http://www.w3.org/2000/svg">
<path d="M43.9137 17.1872H43.9385M17.8414 5.28809H42.6722C49.529 5.28809 55.0875 11.2075 55.0875 18.5094V44.9519C55.0875 52.2539 49.529 58.1732 42.6722 58.1732H17.8414C10.9846 58.1732 5.42603 52.2539 5.42603 44.9519V18.5094C5.42603 11.2075 10.9846 5.28809 17.8414 5.28809ZM40.1891 30.0648C40.4955 32.2655 40.1425 34.513 39.1804 36.4877C38.2182 38.4624 36.6958 40.0638 34.8297 41.064C32.9636 42.0642 30.8489 42.4124 28.7863 42.059C26.7237 41.7055 24.8183 40.6685 23.341 39.0953C21.8638 37.5222 20.89 35.4931 20.5581 33.2966C20.2262 31.1001 20.5531 28.8481 21.4923 26.8609C22.4316 24.8737 23.9353 23.2525 25.7897 22.2278C27.6441 21.2032 29.7546 20.8273 31.8211 21.1536C33.9291 21.4865 35.8806 22.5325 37.3874 24.1372C38.8943 25.7418 39.8765 27.82 40.1891 30.0648Z" stroke="white" stroke-width="2" stroke-linecap="round" stroke-linejoin="round"/>
</svg>
