<svg xmlns="http://www.w3.org/2000/svg" width="61" height="64" fill="none" viewBox="0 0 61 64"><path stroke="#fff" stroke-linecap="round" stroke-linejoin="round" stroke-width="2" d="M40.4176 21.1536C44.3689 21.1536 48.1584 22.8252 50.9524 25.8005C53.7464 28.7759 55.3161 32.8114 55.3161 37.0192V55.529H45.3838V37.0192C45.3838 35.6166 44.8605 34.2714 43.9292 33.2796C42.9979 32.2878 41.7347 31.7307 40.4176 31.7307C39.1005 31.7307 37.8373 32.2878 36.906 33.2796C35.9747 34.2714 35.4515 35.6166 35.4515 37.0192V55.529H25.5191V37.0192C25.5191 32.8114 27.0888 28.7759 29.8828 25.8005C32.6768 22.8252 36.4663 21.1536 40.4176 21.1536Z"/><path stroke="#fff" stroke-linecap="round" stroke-linejoin="round" stroke-width="2" d="M15.5868 23.7979H5.65454V55.529H15.5868V23.7979Z"/><path stroke="#fff" stroke-linecap="round" stroke-linejoin="round" stroke-width="2" d="M10.6207 15.8651C13.3634 15.8651 15.5868 13.4974 15.5868 10.5766C15.5868 7.65583 13.3634 5.28809 10.6207 5.28809C7.87796 5.28809 5.65454 7.65583 5.65454 10.5766C5.65454 13.4974 7.87796 15.8651 10.6207 15.8651Z"/></svg>