<svg width="58" height="53" viewBox="0 0 58 53" fill="none" xmlns="http://www.w3.org/2000/svg">
<path d="M9.31769 14.0947L5.94048 16.163C3.51709 17.6435 2.30539 18.3838 1.64825 19.5133C0.991109 20.6454 0.996654 21.9733 1.00775 24.6267C1.01884 27.827 1.05211 31.0832 1.14084 34.3802C1.35434 42.2028 1.4597 46.1129 4.59569 48.9875C7.7289 51.8622 12.0489 51.964 20.6888 52.1624C26.0477 52.2853 31.4091 52.2853 36.768 52.1624C45.4079 51.964 49.7278 51.8647 52.861 48.9875C55.9942 46.1129 56.1024 42.2028 56.3159 34.3802C56.4046 31.0832 56.4379 27.827 56.449 24.6292C56.4573 21.9733 56.4628 20.6454 55.8057 19.5159C55.1513 18.3838 53.9396 17.6435 51.5162 16.163L48.1363 14.0947" stroke="#FFFDFD" stroke-width="1.5" stroke-linecap="round" stroke-linejoin="round"/>
<path d="M1 21.7275L20.1681 32.2798C24.3383 34.5745 26.4234 35.7193 28.7275 35.7193C31.0317 35.7193 33.1168 34.5745 37.287 32.2773L56.4551 21.7275" stroke="#FFFDFD" stroke-width="1.5" stroke-linecap="round" stroke-linejoin="round"/>
<path d="M9.31836 26.8145V11.5508C9.31836 6.75291 9.31836 4.35651 10.9432 2.86575C12.568 1.375 15.18 1.375 20.4094 1.375H37.0459C42.2753 1.375 44.8873 1.375 46.5121 2.86575C48.1369 4.35651 48.1369 6.75291 48.1369 11.5508V26.8145M23.1821 21.7266H34.2731M23.1821 11.5508H34.2731" stroke="#FFFDFD" stroke-width="1.5" stroke-linecap="round" stroke-linejoin="round"/>
</svg>
