<svg width="56" height="60" viewBox="0 0 56 60" fill="none" xmlns="http://www.w3.org/2000/svg">
<path d="M30.9401 4.70006C31.0151 4.20931 31.2687 3.77049 31.6454 3.4799C32.022 3.1893 32.4909 3.07068 32.9491 3.15006C33.0097 3.16256 33.1987 3.20006 33.2991 3.22506C33.4974 3.27256 33.7751 3.34506 34.1204 3.45256C34.8134 3.67006 35.7817 4.02756 36.9437 4.59506C39.2677 5.73756 42.3594 7.73505 45.5701 11.1751C48.7807 14.6151 50.6451 17.9276 51.7114 20.4201C52.2434 21.6626 52.5747 22.7001 52.7777 23.4426C52.8803 23.8177 52.9682 24.1971 53.0414 24.5801L53.0531 24.6551C53.1306 25.1505 53.023 25.6588 52.7536 26.07C52.4842 26.4812 52.0747 26.7623 51.6134 26.8526C51.1565 26.932 50.6889 26.8144 50.3128 26.5253C49.9367 26.2362 49.6828 25.7992 49.6067 25.3101C49.5532 25.0349 49.4893 24.7622 49.4154 24.4926C49.177 23.634 48.8807 22.7951 48.5287 21.9826C47.6187 19.8576 45.9854 16.9201 43.0967 13.8276C40.2081 10.7326 37.4687 8.97756 35.4831 8.00256C34.7254 7.6256 33.9433 7.3081 33.1427 7.05256C32.8972 6.97836 32.6498 6.91166 32.4007 6.85256C31.9429 6.77078 31.5332 6.49967 31.2601 6.09757C30.9869 5.69547 30.872 5.19452 30.9401 4.70256" fill="white"/>
<path fill-rule="evenodd" clip-rule="evenodd" d="M31.4674 13.325C31.595 12.847 31.8945 12.4428 32.3001 12.2014C32.7057 11.9599 33.1843 11.901 33.6304 12.0375H33.6374L33.6444 12.0425L33.6631 12.0475L33.7098 12.0625C33.7448 12.075 33.7891 12.09 33.8404 12.1125C33.9801 12.1643 34.1179 12.2219 34.2534 12.285C34.5941 12.44 35.0584 12.6825 35.6301 13.0425C36.7734 13.7675 38.3298 14.97 40.1614 16.9325C41.9931 18.895 43.1154 20.565 43.7921 21.79C44.1304 22.4 44.3544 22.8975 44.5014 23.265C44.5774 23.456 44.646 23.6503 44.7068 23.8475L44.7231 23.8975L44.7278 23.915V23.9225L44.7301 23.9275C44.8544 24.4024 44.7991 24.9131 44.576 25.3446C44.353 25.7761 43.9803 26.0961 43.5386 26.2352C43.097 26.3743 42.622 26.3213 42.2165 26.0878C41.811 25.8542 41.5078 25.4589 41.3724 24.9875L41.3654 24.96C41.2014 24.5246 41.0063 24.1033 40.7821 23.7C40.2594 22.7575 39.3214 21.335 37.6881 19.585C36.0548 17.835 34.7248 16.8275 33.8474 16.27C33.471 16.0296 33.0778 15.8207 32.6714 15.645L32.6458 15.635C32.2055 15.493 31.8351 15.171 31.6146 14.7388C31.3941 14.3065 31.3412 13.7986 31.4674 13.325ZM11.6831 11.0175C15.6031 6.81746 22.2204 7.13746 24.9504 12.3775L26.4648 15.285C28.2451 18.7075 27.4868 23.025 24.8781 25.855C24.7244 26.1046 24.6402 26.396 24.6354 26.695C24.6051 27.335 24.8174 28.8175 26.9618 31.1125C29.1038 33.4075 30.4851 33.6375 31.0848 33.605C31.3644 33.601 31.6372 33.5117 31.8711 33.3475C34.5101 30.55 38.5421 29.7375 41.7341 31.6475L44.4478 33.27C49.3384 36.195 49.6371 43.2825 45.7171 47.4825C43.6194 49.7275 40.8334 51.725 37.5551 51.8575C32.7018 52.055 24.6378 50.7125 16.6531 42.1575C8.67077 33.6025 7.41543 24.965 7.59977 19.7625C7.72343 16.2525 9.58777 13.2625 11.6831 11.0175ZM21.8938 14.205C20.4938 11.5225 16.7371 10.905 14.1588 13.67C12.3504 15.6075 11.1721 17.745 11.0974 19.905C10.9434 24.2425 11.9444 31.805 19.1288 39.505C26.3154 47.205 33.3738 48.275 37.4221 48.11C39.4358 48.03 41.4354 46.7675 43.2414 44.83C45.8221 42.065 45.2481 38.0425 42.7421 36.545L40.0284 34.92C38.3414 33.9125 35.9684 34.2575 34.3048 36.04C34.1414 36.215 33.1008 37.255 31.2551 37.35C29.3651 37.45 27.0761 36.54 24.4884 33.765C21.8961 30.99 21.0468 28.5375 21.1401 26.51C21.2288 24.5325 22.2018 23.4175 22.3628 23.245C24.0288 21.46 24.3484 18.92 23.4081 17.1125L21.8938 14.205Z" fill="white"/>
</svg>
