<svg width="60" height="64" viewBox="0 0 60 64" fill="none" xmlns="http://www.w3.org/2000/svg">
<path d="M6.2077 44.9526C4.47308 36.2352 4.47308 27.2274 6.2077 18.51C6.43562 17.6247 6.87599 16.8179 7.48551 16.1688C8.09503 15.5197 8.8527 15.0508 9.68401 14.808C23.0019 12.4585 36.592 12.4585 49.9098 14.808C50.7412 15.0508 51.4988 15.5197 52.1083 16.1688C52.7179 16.8179 53.1582 17.6247 53.3861 18.51C55.1208 27.2274 55.1208 36.2352 53.3861 44.9526C53.1582 45.8379 52.7179 46.6447 52.1083 47.2938C51.4988 47.9429 50.7412 48.4118 49.9098 48.6545C36.592 51.0046 23.0018 51.0046 9.68401 48.6545C8.8527 48.4118 8.09503 47.9429 7.48551 47.2938C6.87599 46.6447 6.43562 45.8379 6.2077 44.9526Z" stroke="white" stroke-width="2" stroke-linecap="round" stroke-linejoin="round"/>
<path d="M24.8308 39.6641L37.2462 31.7313L24.8308 23.7985V39.6641Z" stroke="white" stroke-width="2" stroke-linecap="round" stroke-linejoin="round"/>
</svg>
